<svg xmlns="http://www.w3.org/2000/svg" viewBox="0 0 784 178"><defs><style>.cls-1{fill:#fff;}</style></defs><g id="Layer_2" data-name="Layer 2"><g id="Layer_1-2" data-name="Layer 1"><path class="cls-1" d="M764,89c9,0,20,12,20,25v64H707V118c0-11-4-17-15-17h-9v77H606V0H759c15,0,25,10,25,25V64C784,79,773,89,764,89ZM0,153V25C0,10,10,0,25,0H153c15,0,25,10,25,25V77H101V37c0-8-6-12-12-12S77,29,77,37V142c0,7,6,11,12,11s12-4,12-11V101h77v52c0,15-10,25-25,25H25C10,178,0,168,0,153ZM404,25V178h77V101h24v77h77V25c0-15-10-25-25-25H429C414,0,404,10,404,25ZM505,77H481V37c0-8,6-12,12-12s12,4,12,12Zm187,0c11,0,15-4,15-15V42c0-11-4-17-15-17h-9V77ZM303,77H279V0H202V178h77V101h24v77h77V0H303Z"/></g></g></svg>